<svg viewBox="0 0 72 72" xmlns="http://www.w3.org/2000/svg"><g fill="#d0cfce"><path d="m66.1204 26.2961c0-5.9431-5.1204-12.161-5.1204-10.2961s.9471 26.6324.9471 26.6324l-.9471 16.1963c0 1.1046.8954 2 2 2s2-.8954 2-2l-.5289-16.2893s1.6493-10.3002 1.6493-16.2433z"/><path d="m11.4211 16.7398s.1115 4.158.1115 8.1058c0 2.9609-.8993 4.8203-2.1809 5.565l.0285 28.4181c0 1.1046-.8954 2-2 2s-2-.8954-2-2l.8108-28.4122c-1.287-.7408-2.191-2.6023-2.191-5.5709 0-3.9478.1115-8.1058.1115-8.1058"/><path d="m7.7663 16.7398v9.5849"/><circle cx="36" cy="35.9583" r="19.9583"/><circle cx="36.0042" cy="36" r="12.1495"/></g><path d="m66.1204 26.2961c0-5.9431-5.1204-12.161-5.1204-10.2961s.9471 26.6324.9471 26.6324l-.9471 16.1963c0 1.1046.8954 2 2 2s2-.8954 2-2l-.5289-16.2893s1.6493-10.3002 1.6493-16.2433z" fill="none" stroke="#000" stroke-miterlimit="10" stroke-width="2"/><path d="m11.4211 16.7398s.1115 4.158.1115 8.1058c0 2.9609-.8993 4.8203-2.1809 5.565l.0285 28.4181c0 1.1046-.8954 2-2 2s-2-.8954-2-2l.8108-28.4122c-1.287-.7408-2.191-2.6023-2.191-5.5709 0-3.9478.1115-8.1058.1115-8.1058" style="fill:none;stroke:#000;stroke-linecap:round;stroke-linejoin:round;stroke-miterlimit:10;stroke-width:2"/><path d="m7.7663 16.7398v9.5849" style="fill:none;stroke:#000;stroke-linecap:round;stroke-linejoin:round;stroke-miterlimit:10;stroke-width:2"/><circle cx="36" cy="35.9583" r="19.9583" style="fill:none;stroke:#000;stroke-linecap:round;stroke-linejoin:round;stroke-miterlimit:10;stroke-width:2"/><circle cx="36.0042" cy="36" r="12.1495" style="fill:none;stroke:#000;stroke-linecap:round;stroke-linejoin:round;stroke-miterlimit:10;stroke-width:2"/></svg>